<?xml version="1.0" encoding="UTF-8"?>
<svg id="svg1936" xmlns="http://www.w3.org/2000/svg" version="1.1" xmlns:svg="http://www.w3.org/2000/svg" viewBox="0 0 319.62 296.53">
  <!-- Generator: Adobe Illustrator 29.8.1, SVG Export Plug-In . SVG Version: 2.1.1 Build 2)  -->
  <defs>
    <style>
      .st0 {
        fill: #fff;
      }
    </style>
  </defs>
  <g>
    <path id="path8" class="st0" d="M288.91,256.09c-35,25.8-85.73,39.56-129.41,39.56-61.24,0-116.38-22.65-158.09-60.32-3.28-2.96-.34-7,3.59-4.69,45.01,26.19,100.67,41.95,158.17,41.95,38.77,0,81.43-8.02,120.65-24.67,5.93-2.52,10.88,3.88,5.09,8.18"/>
    <path id="path10" class="st0" d="M303.46,239.44c-4.46-5.72-29.57-2.7-40.85-1.36-3.43.42-3.96-2.57-.87-4.72,20-14.08,52.83-10.01,56.65-5.3,3.83,4.75-1,37.65-19.79,53.35-2.88,2.41-5.64,1.13-4.35-2.07,4.22-10.54,13.69-34.16,9.2-39.9"/>
  </g>
  <path id="path30" class="st0" d="M182.1,128.86v-8.68c-28.98,0-59.59,6.2-59.59,40.37,0,17.31,8.96,29.03,24.36,29.03,11.28,0,21.37-6.93,27.74-18.21,7.89-13.87,7.5-26.89,7.5-42.51M222.53,226.56c-2.65,2.37-6.48,2.54-9.47.96-13.31-11.05-15.67-16.18-23-26.72-21.99,22.44-37.55,29.15-66.07,29.15-33.71,0-59.99-20.8-59.99-62.47,0-32.53,17.65-54.69,42.73-65.51,21.76-9.58,52.15-11.28,75.38-13.93v-5.19c0-9.53.73-20.8-4.85-29.03-4.9-7.39-14.26-10.43-22.49-10.43-15.28,0-28.92,7.84-32.25,24.07-.68,3.61-3.33,7.16-6.93,7.33l-38.9-4.17c-3.27-.73-6.88-3.38-5.98-8.4C79.67,15.09,122.23.88,160.34.88c19.51,0,44.99,5.19,60.38,19.96,19.51,18.21,17.65,42.51,17.65,68.95v62.47c0,18.77,7.78,27,15.11,37.15,2.59,3.61,3.16,7.95-.11,10.66-8.17,6.82-22.72,19.51-30.73,26.61l-.11-.11"/>
</svg>