<?xml version="1.0" encoding="UTF-8"?>
<svg id="Livello_1" xmlns="http://www.w3.org/2000/svg" version="1.1" viewBox="0 0 824.17 518.68">
  <!-- Generator: Adobe Illustrator 29.8.1, SVG Export Plug-In . SVG Version: 2.1.1 Build 2)  -->
  <defs>
    <style>
      .st0 {
        fill: #fff;
      }
    </style>
  </defs>
  <path class="st0" d="M818.91,496.42c-.42-3.86-2.34-7.33-5.4-9.78-23.6-18.79-49.87-34.42-78.18-46.52,15.47-15.38,27.86-32.81,36.85-51.9,3.44-7.28.3-16.01-6.99-19.45-1.98-.92-4.06-1.39-6.2-1.39-5.65,0-10.85,3.29-13.25,8.38-9.44,20.02-23.28,37.82-41.14,52.91-35.61-11.45-61.39-13.41-64.25-13.6-.28-.02-.55-.02-.81-.02h-.11c-3.54,0-6.96,1.29-9.63,3.63-2.95,2.61-4.7,6.17-4.94,10.06-.24,3.92,1.06,7.69,3.66,10.62,2.56,2.92,6.11,4.66,9.98,4.88.63.05,13.92,1.1,34.19,6-13.48,7.21-28.03,12.91-43.34,16.97-15.65,4.14-31.07,6.24-45.82,6.24-22.38,0-41.01-4.79-53.88-13.85-3.2-2.25-5.9-4.6-8.08-7.04,16.12-6.33,29.34-13.62,39.29-21.67,11.29-9.13,17.81-18.79,19.4-28.73,1.98-12.44-3.9-23.57-15.72-29.8-4.23-2.22-9.01-3.34-14.21-3.34-9.32,0-20.08,3.72-30.3,10.49-10.01,6.62-18.87,15.73-24.94,25.65-5.74,9.39-8.91,18.96-9.44,28.46-11.36,3.13-23.88,5.88-37.27,8.18-4.14.71-8,1.07-11.47,1.07-11.12,0-19.08-3.51-25.04-11.04-9.83-12.43-13.81-36.71-11.51-70.23,2.33-34.08,11.21-77.04,25.69-124.31,22.89-9.88,45.82-21.57,68.19-34.75,43.63-25.7,78.35-53.42,100.39-80.15,22.69-27.52,31.98-54.07,26.89-76.78-5.15-22.88-23.76-37.95-49.8-40.31-2.26-.2-4.57-.31-6.88-.31-21.37,0-44.4,8.67-64.86,24.42-23.33,17.95-43.01,44.73-56.92,77.43-15.75,37.07-29.42,73.61-40.63,108.64-40.38,16.3-81.55,27.15-122.42,32.25-5.18-82.82.13-148.73.19-149.36.62-7.4-4.09-13.78-11.44-15.56l-.2-.05-.14-.03-.14-.02c-.92-.16-1.82-.24-2.68-.24-6.53,0-12.15,4.22-13.99,10.5-11.62,39.49-36.92,91.76-75.2,155.35-1.13-.13-2.23-.27-3.31-.4-52.36-6.68-90.8-21.93-109.1-30.46-4.79-2.69-9.64-5.17-14.44-7.38-1.93-.88-3.97-1.33-6.08-1.33-5.45,0-10.41,3-12.93,7.82-3.61,6.83-1.24,15.33,5.4,19.32,1.45.86,6.76,3.93,15.44,8.01,23.13,13.23,52.18,35.34,86.38,65.76C74.04,406.73,8.97,489.22,8.34,490.02c-2.44,3.08-3.52,6.9-3.07,10.78.47,3.89,2.4,7.34,5.45,9.76,1.77,1.38,3.76,2.32,5.92,2.81h.04s.04.02.04.02c1.05.22,2.11.34,3.13.34,4.46,0,8.63-2.02,11.42-5.53,2.73-3.45,66.63-84.51,128.48-178.44,65.75,61.27,127.33,130.44,134.22,138.22l.12.14c2.77,3.17,6.78,5,11,5,2.64,0,5.24-.72,7.51-2.09,6.04-3.62,8.64-11.05,6.17-17.66-18.09-48.24-30.4-107.59-36.6-176.44,36.5-4.46,73.34-13.25,109.59-26.15-11.31,40.49-18.23,76.34-20.55,106.61-3.26,42.48,2.68,73.63,17.67,92.58,11.61,14.68,27.76,22.12,48.02,22.12,5.14,0,10.64-.49,16.36-1.47,13.99-2.39,27.17-5.26,39.22-8.54,4.6,7.99,11.41,15.2,20.28,21.44,17.47,12.3,42.76,19.07,71.22,19.07,17.24,0,35.01-2.39,52.82-7.1,26.81-7.08,51.36-18.48,72.98-33.88,31.52,11.73,60.31,27.86,85.54,47.93,1.75,1.39,3.74,2.34,5.92,2.83h.04s.04.02.04.02c1.06.22,2.11.33,3.12.33,4.46,0,8.61-2.01,11.4-5.52,2.42-3.04,3.51-6.86,3.08-10.76ZM801.13,483.39c-3.14-2.32-6.32-4.59-9.55-6.8,3.23,2.21,6.41,4.48,9.55,6.8ZM726.42,441.79l2.84,1.16-2.84-1.16h0ZM781.78,470.13c-2.27-1.44-4.57-2.85-6.88-4.24,2.31,1.39,4.61,2.8,6.88,4.24ZM763.06,373.25c3.61,1.7,5.68,5.38,5.53,9.14.15-3.76-1.93-7.43-5.53-9.14-.32-.15-.65-.28-.99-.4.33.11.66.25.99.4ZM741.86,393.26c3.08-4.97,5.86-10.1,8.35-15.39.28-.6.65-1.15,1.04-1.67-.4.52-.76,1.07-1.04,1.67-2.49,5.28-5.28,10.41-8.35,15.39-1.54,2.49-3.15,4.93-4.83,7.34,1.68-2.41,3.29-4.85,4.83-7.34ZM639.53,420.01c.16,0,.33,0,.49,0,.9.06,4.04.29,9.04.94,11,1.43,30.95,4.89,55.57,12.93l1.07.33.83-.71c4.76-3.95,9.24-8.07,13.45-12.38,4.21-4.3,8.14-8.79,11.79-13.43-3.65,4.65-7.58,9.13-11.79,13.43-4.21,4.3-8.69,8.43-13.45,12.38l-.83.71-1.07-.33c-24.62-8.05-44.57-11.5-55.57-12.93-5-.65-8.15-.89-9.04-.94-.16,0-.33,0-.49,0h0ZM633.06,422.41c.88-.77,1.89-1.37,2.96-1.78.54-.2,1.09-.36,1.66-.46-.57.1-1.12.26-1.66.46-1.08.41-2.08,1.01-2.96,1.78-.73.64-1.35,1.38-1.85,2.18.5-.8,1.12-1.54,1.85-2.18ZM629.8,429.05c.02-.32.06-.64.11-.95-.05.31-.09.63-.11.95-.02.32-.02.64-.01.96-.01-.32,0-.64.01-.96ZM630,431.72c-.12-.53-.19-1.08-.21-1.63.02.55.1,1.09.21,1.63ZM631.09,434.51c-.43-.74-.75-1.54-.97-2.36.22.82.54,1.62.97,2.36.32.55.7,1.07,1.13,1.55-.43-.49-.81-1.01-1.13-1.55ZM637.13,439.04c-.67-.16-1.32-.38-1.94-.69.62.3,1.27.53,1.94.69ZM638.7,439.28s.07,0,.1.01c0,0,0,0,0,0,0,0,0,0,0,0-.03,0-.07,0-.1-.01ZM639.02,439.31c.14.01.34.03.62.05-.27-.03-.48-.04-.62-.05ZM640.56,439.45s.08,0,.12.01c-.04,0-.08,0-.12-.01ZM681.63,450.91l4.07-2.41h0l-4.07,2.41c-5.87,3.44-11.96,6.59-18.23,9.44,6.27-2.85,12.36-6,18.23-9.44ZM546.12,393.21h0l.48.44s.01,0,.02,0h0s-.01,0-.02,0h0s0,0,0,0l-.48-.44ZM556.32,398.36c-.08.52-.23,1.07-.43,1.64.2-.57.35-1.12.43-1.64.04-.24.06-.47.06-.69,0,.22-.02.45-.06.69ZM555.39,401.23c-.29.62-.65,1.26-1.07,1.93.42-.66.78-1.31,1.07-1.93ZM552.42,393.54c.15.05.31.11.46.17-.15-.06-.3-.12-.46-.17ZM552.29,405.9c-1.12,1.34-2.48,2.75-4.11,4.22,1.63-1.47,2.99-2.88,4.11-4.22ZM520.05,420.46c7.06-11.52,19.1-19.74,27.13-21.84h3.94c-1.6,3.97-9.34,13.24-31.92,23.3.27-.49.56-.97.85-1.46ZM519.14,413.07c.09-.12.19-.23.29-.35-.09.12-.19.23-.29.35ZM520.96,410.84c.13-.15.27-.3.4-.45-.13.15-.27.29-.4.45ZM522.87,408.73c.1-.11.2-.2.3-.31-.1.1-.2.2-.3.31ZM524.84,406.73c.13-.12.26-.23.38-.35-.13.12-.26.23-.38.35ZM526.87,404.86c.07-.06.14-.12.21-.18-.07.06-.14.11-.21.18ZM528.94,403.12c.13-.11.27-.2.4-.31-.13.11-.27.2-.4.31ZM531.03,401.5c.13-.1.26-.18.39-.27-.13.09-.26.18-.39.27ZM533.13,400.02c.15-.1.3-.19.44-.29-.15.1-.3.19-.44.29ZM535.21,398.67c.15-.09.3-.18.46-.27-.15.09-.3.17-.46.27ZM537.27,397.46c.18-.1.36-.19.54-.29-.18.1-.36.19-.54.29ZM539.29,396.4c.18-.09.35-.16.52-.24-.18.08-.35.16-.52.24ZM541.25,395.48c.22-.1.43-.17.64-.26-.22.09-.42.17-.64.26ZM543.13,394.72c.24-.09.47-.16.71-.24-.24.08-.47.15-.71.24ZM544.92,394.1c.25-.08.49-.13.74-.2-.25.07-.48.12-.74.2ZM545.25,412.57c-1.11.87-2.3,1.76-3.59,2.66-1.01.7-2.08,1.41-3.2,2.13,1.13-.71,2.19-1.42,3.2-2.13,1.29-.9,2.48-1.78,3.59-2.66ZM536.72,418.43c-1.19.72-2.43,1.44-3.74,2.17,1.31-.73,2.56-1.45,3.74-2.17ZM514.51,420.14c-.82,1.51-1.52,3.03-2.12,4.55.6-1.51,1.31-3.03,2.12-4.55ZM510.26,430.95l3.93-1.55c6.41-2.56,11.98-5.15,16.78-7.7-4.8,2.56-10.37,5.15-16.78,7.7l-3.93,1.55h0ZM583.5,478.41h0c3.79,0,7.63-.13,11.5-.4-3.87.27-7.7.4-11.5.4ZM575.58,395.74c-.1-1.22-.29-2.41-.58-3.57.29,1.16.48,2.36.58,3.57ZM571.12,384.12c-.74-.97-1.57-1.9-2.48-2.78.91.88,1.74,1.8,2.48,2.78ZM474.94,441.46c3.26-.77,6.44-1.57,9.54-2.4-3.1.83-6.28,1.63-9.54,2.4-3.26.77-6.59,1.51-9.99,2.22,3.4-.71,6.73-1.45,9.99-2.22ZM459.79,444.72c-3.47.68-7,1.33-10.6,1.95,3.6-.62,7.13-1.27,10.6-1.95ZM430.13,447.37c1.43.2,2.91.33,4.43.4-1.52-.07-3-.2-4.43-.4-1.43-.2-2.81-.47-4.15-.8,1.34.33,2.72.6,4.15.8ZM418.51,443.76c-1.73-.91-3.37-1.97-4.91-3.18,1.54,1.21,3.17,2.27,4.91,3.18ZM398.6,414.65c-.36-1.39-.7-2.81-1.01-4.28.31,1.47.65,2.9,1.01,4.28ZM396.96,344.47c-.41,3.48-.76,6.88-1.06,10.21.3-3.33.65-6.73,1.06-10.21s.88-7.03,1.4-10.66c-.52,3.62-.99,7.18-1.4,10.66ZM394.77,382.52c-.05-2.85-.03-5.78.04-8.8-.07,3.01-.08,5.95-.04,8.8ZM395.07,390.82c.27,4.47.69,8.69,1.28,12.67.24,1.59.5,3.14.78,4.65-.29-1.51-.55-3.06-.78-4.65-.59-3.98-1.01-8.2-1.28-12.67ZM395.01,367.59c.1-2.08.22-4.2.37-6.35-.15,2.15-.27,4.27-.37,6.35ZM404.21,429.21c-.57-1.04-1.12-2.12-1.64-3.25.52,1.13,1.06,2.21,1.64,3.25ZM401.82,424.24c-.49-1.17-.96-2.38-1.4-3.64.44,1.26.91,2.47,1.4,3.64ZM491.69,198.24c-5.65,3.33-11.33,6.56-17.04,9.69-17.13,9.39-34.51,17.88-51.85,25.32l-.83.36-.28.86c-4.25,13.8-8,27.15-11.26,39.96-5.06,19.94-8.91,38.6-11.53,55.73,2.62-17.13,6.47-35.79,11.53-55.73,3.25-12.82,7.01-26.16,11.26-39.96l.28-.86.83-.36c17.34-7.44,34.71-15.93,51.85-25.32,5.71-3.13,11.39-6.36,17.04-9.69,2.75-1.62,5.46-3.24,8.12-4.87-2.67,1.63-5.37,3.25-8.12,4.87ZM469.98,118.27c26.26-61.77,67.18-83.89,94.24-84.07h1.39c1.19.02,2.36.08,3.5.19,1.67.15,3.33.4,4.96.75,7.26,1.58,16.45,5.8,18.94,16.85,2.82,12.57-4.24,30.72-19.36,49.8-19.49,24.58-52.07,50.7-94.23,75.54-13.56,7.98-27.29,15.37-40.92,22.04,9.12-26.14,19.7-53.39,31.48-81.1ZM481.95,181.6c35.51-20.92,61.49-40.95,79.79-59.16-18.3,18.21-44.28,38.24-79.79,59.16-6.84,4.03-13.73,7.9-20.63,11.61,6.9-3.71,13.78-7.58,20.63-11.61ZM575.54,107.35c-1.59,1.94-3.28,3.9-5.06,5.89,1.78-1.99,3.47-3.95,5.06-5.89ZM570.08,113.69c-1.9,2.11-3.9,4.25-6.02,6.41,2.12-2.16,4.12-4.3,6.02-6.41ZM587.05,91.4c-.51.82-1.03,1.66-1.58,2.49.54-.84,1.07-1.67,1.58-2.49ZM592.11,82.2c-.44.9-.89,1.81-1.37,2.74.48-.92.94-1.83,1.37-2.74ZM564.2,29.23h0c-10.29.08-22.43,3.08-35.02,9.86,12.59-6.79,24.73-9.78,35.02-9.85h0ZM522.57,42.98c-4.9,3.14-9.84,6.87-14.73,11.23,4.89-4.36,9.82-8.09,14.73-11.23,1.42-.91,2.84-1.77,4.26-2.58-1.42.81-2.84,1.67-4.26,2.58ZM502.71,59.04c-1.37,1.37-2.74,2.79-4.1,4.26,1.36-1.47,2.73-2.9,4.1-4.26,1.09-1.08,2.19-2.14,3.28-3.15-1.1,1.02-2.19,2.07-3.28,3.15ZM491.44,71.66c1.33-1.68,2.68-3.29,4.04-4.86-1.36,1.57-2.7,3.18-4.04,4.86ZM431.49,204.5l-1.51,4.45,4.25-2.02-4.25,2.02,1.51-4.45c2.42-7.08,4.95-14.24,7.58-21.47-2.63,7.23-5.16,14.4-7.58,21.47ZM507.69,188.48c2.58-1.64,5.13-3.27,7.63-4.92-2.5,1.64-5.05,3.28-7.63,4.92ZM533.29,171.2c-2.29,1.65-4.62,3.31-7,4.96,2.38-1.65,4.71-3.3,7-4.96,6.87-4.96,13.36-9.94,19.45-14.91-6.09,4.98-12.58,9.95-19.45,14.91ZM561.58,148.83c6.64-5.8,12.73-11.59,18.24-17.35-5.52,5.76-11.61,11.55-18.24,17.35ZM582.15,129.02c1.53-1.64,3.01-3.28,4.45-4.91-1.44,1.63-2.92,3.27-4.45,4.91ZM592.74,116.77c3.23-4.06,6.17-8.08,8.79-12.08-2.63,3.99-5.56,8.02-8.79,12.08ZM609.66,90.5c-.75,1.56-1.56,3.12-2.41,4.69.85-1.57,1.66-3.13,2.41-4.69.75-1.56,1.45-3.1,2.11-4.64-.65,1.54-1.35,3.09-2.11,4.64ZM612.71,83.55c.9-2.3,1.69-4.58,2.35-6.83-.67,2.26-1.45,4.54-2.35,6.83ZM612.76,35.81c1.7,3.35,3.01,6.98,3.88,10.86,1.36,6.06,1.61,12.4.78,18.95-.28,2.18-.67,4.39-1.18,6.62.51-2.23.91-4.44,1.18-6.62.83-6.55.58-12.88-.78-18.95-.87-3.88-2.18-7.5-3.88-10.86-1.42-2.79-3.11-5.39-5.06-7.79,1.95,2.39,3.64,4.99,5.06,7.79ZM606.5,26.61c-1.23-1.38-2.55-2.69-3.96-3.92,1.41,1.23,2.73,2.54,3.96,3.92ZM599.62,20.35c-1.01-.75-2.06-1.46-3.14-2.13,1.08.67,2.13,1.38,3.14,2.13ZM568.06,9.99c-1.07-.05-2.16-.07-3.25-.07h0c1.09,0,2.18.02,3.25.07ZM502.97,33.3c-2.83,2.18-5.61,4.49-8.32,6.94,2.72-2.44,5.49-4.76,8.32-6.94ZM461.9,80.61c2.11-3.5,4.29-6.9,6.55-10.18,5.64-8.21,11.74-15.73,18.23-22.48-6.49,6.74-12.59,14.26-18.23,22.48-2.26,3.28-4.44,6.68-6.55,10.18-3.16,5.25-6.15,10.74-8.95,16.44,2.8-5.7,5.79-11.19,8.95-16.44ZM438.9,129.68c2.82-6.96,5.72-13.93,8.69-20.93.85-2,1.72-3.97,2.61-5.92-.89,1.95-1.76,3.92-2.61,5.92-2.97,6.99-5.87,13.97-8.69,20.93-3.76,9.27-7.39,18.51-10.88,27.69,3.49-9.18,7.12-18.41,10.88-27.69ZM405.56,219.52l.86-.36.28-.88-.28.88-.86.36c-10.56,4.29-21.18,8.22-31.83,11.77,10.65-3.55,21.27-7.48,31.83-11.77ZM276.39,253.13l-1.04.12h0l1.04-.12ZM282.06,418.58l-5.36-5.75,5.36,5.75h0ZM242.68,377.04c-4.27-4.4-8.69-8.92-13.22-13.51,4.53,4.59,8.95,9.11,13.22,13.51,2.14,2.2,4.24,4.38,6.3,6.52-2.06-2.14-4.17-4.32-6.3-6.52ZM170.84,306.71l-1.26-1.13,1.26,1.13c19.17,17.65,37.98,36.01,55.2,53.37-17.22-17.36-36.03-35.71-55.2-53.37ZM202.34,252.62c19-32.09,34.94-61.82,47.37-88.39l.22-.46,3.56-7.77h0s-3.56,7.77-3.56,7.77l-.22.46c-12.43,26.56-28.37,56.3-47.37,88.39l-1.68,2.83,3.29.16c7.04.35,14.19.53,21.27.53h0c-7.07,0-14.22-.18-21.27-.53l-3.29-.16,1.68-2.83ZM256.18,255.06l-1.97.12c-4.8.32-9.64.56-14.48.71,4.84-.16,9.68-.4,14.48-.71l1.97-.12h0ZM225.23,251.17c-5.32,0-10.72-.1-16.09-.31,15.24-25.94,28.45-50.31,39.39-72.66.1,24.45.91,48.68,2.4,72.21-8.51.5-17.13.76-25.7.76ZM225.25,275.44c7.52,0,15.17-.2,22.82-.58,2.55-.13,5.1-.28,7.65-.44l1.94-.12h0l-1.94.12c-2.55.17-5.1.32-7.65.44-7.65.38-15.3.58-22.82.58-11.34,0-22.78-.44-34.02-1.3,11.24.86,22.68,1.3,34.02,1.3ZM272.46,401.04c-25.18-26.78-60.14-62.74-96.43-96.29,5.46-8.54,10.85-17.13,16.05-25.56,10.92.81,22.07,1.22,33.17,1.22,9.14,0,18.51-.29,27.89-.85,4,44.2,10.49,84.98,19.33,121.48ZM188.58,275.41h0s0,0,0,0c-5.94,9.65-12.02,19.32-18.07,28.76,6.05-9.44,12.13-19.11,18.07-28.76ZM189.43,274.02h0l.61.04-.61-.04ZM269.12,404.72c1.76,1.87,3.47,3.7,5.13,5.48-1.66-1.78-3.37-3.6-5.13-5.48-3.52-3.74-7.23-7.67-11.12-11.75,3.88,4.08,7.6,8,11.12,11.75ZM274.28,92.8c-.25-.51-.55-.99-.89-1.44.34.45.63.93.89,1.44ZM252.64,105.99c1.36-4,2.59-7.89,3.7-11.66.23-.78.54-1.51.93-2.18.52-.9,1.17-1.69,1.93-2.36.38-.34.78-.64,1.21-.91.43-.27.88-.51,1.35-.71,1.17-.5,2.46-.77,3.8-.77h0c-1.35,0-2.63.27-3.8.77-.47.2-.92.44-1.35.71-.43.27-.83.58-1.21.91-.76.67-1.41,1.47-1.93,2.36-.39.67-.7,1.4-.93,2.18-1.11,3.77-2.34,7.66-3.7,11.66-.9,2.67-1.86,5.38-2.87,8.15,1.01-2.77,1.97-5.48,2.87-8.15ZM248.21,118.33c-1.07,2.82-2.19,5.68-3.36,8.6,1.17-2.92,2.29-5.78,3.36-8.6ZM235.04,149.71c-1.44,3.16-2.94,6.37-4.49,9.62,1.55-3.26,3.04-6.46,4.49-9.62ZM209.42,200.68c1.97-3.63,3.89-7.22,5.76-10.76s3.68-7.03,5.44-10.48c1.76-3.45,3.47-6.84,5.12-10.2-1.66,3.35-3.36,6.75-5.12,10.2-1.76,3.45-3.58,6.94-5.44,10.48s-3.79,7.13-5.76,10.76c-1.97,3.63-4,7.31-6.07,11.04,2.08-3.73,4.1-7.41,6.07-11.04ZM200.19,217.34c-6.39,11.32-13.25,23.05-20.57,35.18l-.34.54.34-.54c7.33-12.14,14.19-23.87,20.57-35.18ZM172.45,252.81c1.73.22,3.48.43,5.26.62l1.24.16h0l-1.24-.16c-1.78-.2-3.53-.41-5.26-.62-19.92-2.54-37.86-6.31-53.47-10.49,15.62,4.18,33.56,7.94,53.47,10.49ZM139.29,272.03c6.83,1.35,13.63,2.54,20.34,3.54-1.79,2.85-3.67,5.82-5.79,9.14-3.76-3.31-7.47-6.53-11.1-9.63h.26l-3.71-3.05ZM120.26,262.8l8.92,7.33h0l-8.92-7.33h0ZM144.23,308.8l-.12-.11.12.11h0ZM129.16,270.13h0c7.64,6.33,15.7,13.25,24.01,20.61l1.75,1.55h0s-1.75-1.55-1.75-1.55c-8.31-7.36-16.38-14.28-24.01-20.61ZM82.13,230.45c4.62,1.76,9.69,3.58,15.2,5.41,3.3,1.09,6.76,2.19,10.37,3.27-3.61-1.08-7.07-2.18-10.37-3.27-5.51-1.82-10.58-3.65-15.2-5.41-1.85-.7-3.62-1.4-5.32-2.08,1.7.68,3.47,1.38,5.32,2.08ZM74.31,227.36c-1.62-.67-3.17-1.32-4.65-1.95,1.47.63,3.02,1.28,4.65,1.95ZM47.45,214.55c4.61,2.12,9.4,4.56,14.21,7.27l.1.05-.1-.05c-4.81-2.71-9.6-5.15-14.21-7.27-1.26-.58-2.61-.87-4.01-.87h0c1.4,0,2.75.3,4.01.87ZM36.3,229.84c.62.68,1.34,1.28,2.16,1.77.14.09.4.24.74.43-.34-.2-.59-.34-.74-.43-.82-.49-1.55-1.09-2.16-1.77ZM40.91,233.01c-.21-.12-.41-.23-.59-.33.18.1.38.21.59.33ZM111.16,392.15c-7.46,10.59-14.71,20.71-21.61,30.25-3.45,4.77-6.82,9.39-10.08,13.84-5.71,7.8-11.12,15.09-16.12,21.8-20.75,27.79-34.73,45.5-35.97,47.07-1.84,2.32-4.59,3.66-7.54,3.66h0c2.95,0,5.69-1.34,7.54-3.66,1.24-1.56,15.22-19.28,35.97-47.07,5.01-6.71,10.41-14,16.12-21.8,3.26-4.45,6.63-9.07,10.08-13.84,6.9-9.53,14.15-19.66,21.61-30.25,2.8-3.97,5.63-8.01,8.48-12.1-2.85,4.09-5.68,8.13-8.48,12.1ZM131.16,363.38c1.94-2.83,3.88-5.67,5.83-8.54-1.95,2.87-3.89,5.72-5.83,8.54ZM148.72,337.41c1.96-2.94,3.92-5.9,5.88-8.87-1.96,2.97-3.92,5.93-5.88,8.87ZM160.53,323.71l-1.72-1.6h0s1.72,1.6,1.72,1.6c8.39,7.77,16.71,15.68,24.87,23.59-8.16-7.91-16.48-15.82-24.87-23.59ZM194.5,356.18c2.01,1.97,4,3.94,5.98,5.9-1.98-1.96-3.97-3.93-5.98-5.9ZM267.87,431.9c1,1.08,1.99,2.15,2.96,3.19-.96-1.04-1.95-2.11-2.96-3.19ZM281.21,446.4c-.79-.86-1.61-1.76-2.44-2.67.83.91,1.65,1.81,2.44,2.67,1.03,1.13,2.03,2.23,2.98,3.27-.95-1.05-1.94-2.14-2.98-3.27ZM297.81,464.83l-.14-.16c-.98-1.11-3.07-3.46-6.13-6.87-1.7-1.89-3.69-4.1-5.96-6.6,2.27,2.5,4.26,4.71,5.96,6.6,3.06,3.4,5.15,5.76,6.13,6.87l.14.16c.92,1.05,2.04,1.88,3.28,2.44-1.24-.56-2.36-1.39-3.28-2.44ZM314.73,458.42s0-.03,0-.04c0,.01,0,.03,0,.04ZM301.38,415.97c1.45,5.15,2.96,10.21,4.51,15.16s3.17,9.81,4.83,14.57c1.11,3.17,2.24,6.3,3.4,9.38.22.58.37,1.18.47,1.77-.1-.6-.26-1.19-.47-1.77-1.16-3.08-2.29-6.21-3.4-9.38-1.66-4.76-3.27-9.62-4.83-14.57s-3.06-10.01-4.51-15.16c-1.45-5.15-2.85-10.4-4.19-15.74,1.34,5.34,2.74,10.59,4.19,15.74ZM295.86,394.85c-8.72-36.05-15.04-76.31-18.89-120.39l-.16-1.9h0l.16,1.9c3.84,44.08,10.17,84.34,18.89,120.39ZM381.03,249.22c4.84-1.63,9.67-3.33,14.49-5.1l3.66-1.36h0s-3.66,1.36-3.66,1.36c-4.82,1.77-9.65,3.47-14.49,5.1ZM398.11,246.52l.88-3.08-.88,3.08c-11.8,41.19-22.6,90.03-22.82,131.27.22-41.24,11.02-90.08,22.82-131.27ZM375.35,384.18c-.05-2.11-.07-4.24-.05-6.39-.01,2.15,0,4.28.05,6.39ZM676.85,475.36c-4.02,1.96-8.1,3.81-12.27,5.53,4.16-1.72,8.25-3.58,12.27-5.53ZM682.78,472.37c2.95-1.55,5.85-3.17,8.72-4.85-2.86,1.68-5.77,3.3-8.72,4.85ZM708.75,456.19l.23-.17.68.24-.68-.24-.23.17ZM801.25,507.21c-.94-.32-1.81-.8-2.6-1.39.8.59,1.66,1.06,2.6,1.39.35.12.7.22,1.06.3.7.14,1.39.22,2.06.23-.67,0-1.36-.08-2.06-.23-.36-.08-.72-.18-1.06-.3ZM807.61,507.2c-1.01.36-2.08.54-3.18.54h0c1.1,0,2.17-.19,3.18-.54.67-.24,1.32-.55,1.92-.93-.6.38-1.25.69-1.92.93ZM813.37,501.64c-.35.88-.82,1.7-1.42,2.45.6-.75,1.07-1.58,1.42-2.45.58-1.46.79-3.06.61-4.67-.03-.32-.08-.63-.15-.94.07.31.12.62.15.94.18,1.61-.04,3.21-.61,4.67Z"/>
</svg>