<?xml version="1.0" encoding="UTF-8"?>
<svg id="Livello_1" xmlns="http://www.w3.org/2000/svg" version="1.1" viewBox="0 0 1298.86 2063.55">
  <!-- Generator: Adobe Illustrator 29.8.1, SVG Export Plug-In . SVG Version: 2.1.1 Build 2)  -->
  <defs>
    <style>
      .st0 {
        fill: #224f5d;
      }
    </style>
  </defs>
  <path class="st0" d="M262.46,1219.71c23.08,3.51,43.52,19.47,50.55,41.91,9.55,30.5-8.92,57.85-37.54,67.93-4.44,1.57-9.16,2.33-13.73,3.41,2.91,19.01,3.18,38.77-3.23,57.25-12.92,37.25-70.1,32.67-90.01,4.11-13.33-19.11-1.52-49.19,23.4-45.82,29.43,3.98,36.43,37.74,7.79,48.27l-6.41,1.6c11.78,7.08,25.81,8.16,38.04,1.74,22.19-11.65,16.51-45.61,14.29-66.25-.24-1.89-1.94-1.04-3.28-1.33-40.16-8.88-75.4-26.88-83.65-70.83-10.84-57.74,43.41-92.05,88.11-112.71,0-5.75-.87-11.42-.9-17.19-.16-26.01,8.27-55.52,26-75.07,11.56-12.75,33.42-27.38,44.38-5.51,10.1,20.17,5.71,56.41-2,76.82-8.8,23.29-21.28,36.93-41.63,50.1-3.34,2.16-6.82,4.13-10.05,6.46-1.01,11.67.09,23.41-.15,35.11h.02ZM269.15,1138.83c16.71-9.08,36.7-27.61,38.62-47.29,1.12-11.39-4.32-22.15-17.18-16.19-21.78,14.88-28.46,42.63-31.1,67.49.39.58,8.61-3.47,9.64-4.03h.01ZM245.6,1219.59l.49-26.5c-18.01,9.74-36.37,18.7-51.55,32.74-30.81,28.5-18.69,67.46,15.73,85.69,6.64,3.52,15.95,7.22,23.24,8.67,1.78.35,10.18,1.51,11.25.92l.63-72.09c-13.91,1.28-25.37,15.09-25.67,28.82-.15,7.07,3.52,15.23,11.7,14.75.81-.04,1.93-.33,2.92-.74,2.95-1.2,4.59-3.39,5.26-4.4.15.34-.67,6.27-.92,7.02-4.12,12.04-21.86,6.44-28.98.29-19.59-16.86-12.72-51.65,7.5-65.56,8.03-5.52,18.76-8.76,28.39-9.63h0ZM262.99,1319c28.36-8.35,35.67-46.65,9.93-63.05-1.51-.97-8.98-5.16-10.23-4.81l.31,67.86h-.01Z"/>
  <path class="st0" d="M403.3,541.91c20.25-7.39,43.88-3.54,59.53,11.51,21.26,20.46,18.44,50.8-.26,71.66-2.9,3.24-6.39,5.95-9.6,8.86,10.79,14.11,19.78,29.99,22.78,47.79,6.07,35.91-42.27,57.55-71.06,43.26-19.27-9.56-23.05-39.15-1.37-47.49,25.6-9.84,46.24,14.4,27.73,35.63l-4.47,4.13c12.68.51,24.52-4.84,31.59-15.47,12.81-19.28-6.87-44.26-17.82-59.99-1.02-1.43-2.04.02-3.25.37-36.46,10.62-72.99,11.69-99.17-20.25-34.4-41.96-5.68-93.8,21.35-130.37-2.56-4.66-5.77-8.86-8.36-13.52-11.67-20.99-17.94-48.63-12.25-72.32,3.71-15.45,14.91-37,33.5-24.15,17.14,11.85,29.65,43.15,32.46,63.09,3.2,22.76-.85,39.34-11.48,59.04-1.75,3.24-3.68,6.37-5.27,9.69,4.37,9.9,10.45,18.92,15.46,28.5l-.02.02ZM372.83,473.45c9.51-14.77,17.46-38.64,10.3-55.43-4.14-9.71-13.32-16.02-21.08-5.48-11.04,21.71-4.13,47.14,4.76,68.46.57.29,5.44-6.62,6.02-7.54h0ZM389.59,549.3l-11.36-21.68c-10.27,15.88-21.15,31.28-27.22,49.39-12.31,36.74,14.79,62.92,50.75,62.41,6.95-.09,16.12-1.22,22.67-3.29,1.59-.5,8.92-3.29,9.52-4.25l-31.47-58.65c-10.7,7.21-13.84,23.47-8,34.73,3.02,5.8,9.6,10.77,16.02,6.75.63-.4,1.42-1.13,2.04-1.89,1.86-2.28,2.22-4.78,2.31-5.9.28.21,2.25,5.37,2.38,6.09,2.01,11.58-14.84,14.9-23.34,13.1-23.35-4.96-33.22-36.18-23.01-56.42,4.05-8.03,11.32-15.41,18.72-20.39h0ZM447.78,622.07c19.27-19.34,8.2-53.6-19.94-55.46-1.65-.1-9.57-.2-10.42.65l30.36,54.82h0Z"/>
  <g>
    <path class="st0" d="M131.37,1585.47c-3.35,5.03-5.74,13.47-4.81,19.5,11.51-14.26,35.03-9.13,39.36,8.62,6.69,27.45-37.55,42.45-47.89,10.03-17.06-53.45,66.69-89.29,97.66-38.66,32.93,53.86-15.13,129.36-58.58,162.3-2.61,1.98-9.28,8.4-11.91,3.77-2.46-4.35,8.05-11.12,11.09-14.23,23.87-24.42,37.65-46.94,42.62-81.27,3.42-23.62-.02-55.66-15.58-74.76-13.55-16.62-40.67-12.22-51.97,4.71v-.02Z"/>
    <path class="st0" d="M243.45,1611.53c13.13-5.3,19.89,16.8,7.07,20.53-12.82,3.73-18.91-15.76-7.07-20.53Z"/>
    <path class="st0" d="M230.08,1580.25c-12.81-7.88.09-27.56,11.39-17.19,9.81,9.01-1.54,23.23-11.39,17.19Z"/>
  </g>
  <g>
    <path class="st0" d="M1034.17,829.84c-4.71,5.26-8.86,14.66-8.78,21.79,15.66-14.61,42.05-4.82,44.14,16.45,3.23,32.87-50.44,42.96-57.09,3.74-10.96-64.69,91.88-92.41,119.4-28.7,29.26,67.76-38.78,147.26-94.47,178.24-3.35,1.86-12.12,8.19-14.4,2.4-2.13-5.43,11.14-11.55,15.18-14.65,31.65-24.35,51.3-48.15,62.69-87.08,7.84-26.78,9.12-64.43-5.76-89.1-12.95-21.47-45.07-20.83-60.93-3.09h0Z"/>
    <path class="st0" d="M1159.63,878.42c16.08-3.97,20.27,22.72,4.81,24.93s-19.3-21.35-4.81-24.93Z"/>
    <path class="st0" d="M1149.29,840.02c-13.53-11.22,4.63-31.89,16-18.02,9.89,12.04-5.61,26.63-16,18.02Z"/>
  </g>
  <g>
    <path class="st0" d="M1064.98,39.9l28.2,67.4c13.51-3.19,11.34-13.55,8.78-24.32,4.09.57,6.89,7.35,10.98,8.67,8.31,2.69,17.53-2.98,19.65-11.28,4.63-18.1-17.56-61.68-39.25-38.54,35.15,19.46-12.15,46.86-14.08,11.81-1.64-29.92,37.14-36.75,56.13-12.28,14.58,18.78,16.74,53.07-11.15,59.72-5.75,1.37-19.7-3.57-11.86,10.93,6.08,11.25,9.45.42,13.88-2.66,31.39-21.85,62.83,26.3,47.69,57.18-10.87,22.17-47.75,19.38-49.71-4.61-1.99-24.35,35.65-13.16,23.63,10.29,33.6,1.57,14.28-52.61-3.97-56.89-6.73-1.58-15.04,2.33-17.98,8.46-2.13,4.45,1.42,9.86-1.3,13.4-5.87-9.38-11.73-18.2-23.49-10.82l28.2,67.4-5.86,2.45-64.37-153.85,5.86-2.45h.02Z"/>
    <rect class="st0" x="1056.62" y="45.13" width="25.41" height="166.77" transform="translate(33.24 422.62) rotate(-22.7)"/>
  </g>
  <g>
    <path class="st0" d="M279.64,1846.81l-8.69,67.19c12.33,3.71,15.4-5.6,18.35-15.44,3.02,2.35,2.12,9.1,4.78,12.06,5.42,6.02,15.45,5.76,21,.08,12.12-12.38,14.56-57.65-13.59-49.16,19.17,31.95-31.52,31.95-16.79,2.94,12.58-24.77,46.87-12.24,50.75,16.22,2.97,21.85-11.22,50.36-36.69,42.74-5.25-1.58-14.15-12.02-14.6,3.26-.35,11.85,7.39,4.73,12.38,4.31,35.34-2.95,38.19,50.29,11.71,68.04-19.02,12.75-47.32-6.64-37.74-26.8,9.71-20.46,34.72,6,14.19,19.24,26.22,16.86,35.9-35.58,23.24-47.5-4.67-4.39-13.15-5.12-18.35-1.56-3.78,2.58-3.44,8.57-7.27,10.15-.35-10.26-.96-20.06-13.82-19.6l-8.69,67.19-5.84-.75,19.82-153.35,5.84.75h-.01Z"/>
    <rect class="st0" x="164.66" y="1907.94" width="154.64" height="23.56" transform="translate(-1692.92 1913.78) rotate(-82.64)"/>
  </g>
  <g>
    <path class="st0" d="M565.37,822.56l-18.61,67.78c12.13,5.59,16.63-3.54,21.08-13.21,2.77,2.86.86,9.65,3.18,13.08,4.71,6.97,15.05,8.14,21.57,3.11,14.23-10.96,23.27-57.14-6.88-52.48,15.09,35.6-36.99,28.29-17.67.59,16.5-23.64,49.94-5.81,49.82,23.98-.09,22.87-18.79,50.13-43.86,38.63-5.18-2.37-12.81-14.38-15.48,1.24-2.06,12.13,6.91,5.92,12.1,6.21,36.74,2.06,32,57.19,2.22,71.61-21.38,10.36-47.67-13.64-34.93-32.98,12.74-19.34,34.82,11.17,11.81,21.81,24.52,21.11,42.02-31.4,30.73-45.45-4.16-5.18-12.78-7.15-18.64-4.25-4.25,2.1-4.76,8.32-8.94,9.38,1.11-10.59,1.91-20.74-11.38-22.12l-18.61,67.78-5.89-1.61,42.48-154.74,5.89,1.61h0Z"/>
    <rect class="st0" x="435.92" y="880.04" width="160.45" height="24.44" transform="translate(-480.92 1153.79) rotate(-74.65)"/>
  </g>
  <path class="st0" d="M184.32,125.79c-.65-4.68-4.97-7.96-9.65-7.31s-7.96,4.97-7.31,9.65l26.78,194.38c-18.02-10.17-44.01-9.36-66.85,4-14.78,8.66-26.17,21.29-32.04,35.55-6.21,15.08-5.64,30.2,1.62,42.59,10.12,17.29,31.32,25.07,53.84,21.97,9.75-1.34,19.74-4.73,29.19-10.25,25.71-15.05,39.48-41.4,35.53-64.06-.01-.27,0-.54-.03-.81l-31.09-225.7h.01ZM171.25,401.58c-23.13,13.54-49.87,11.04-59.61-5.58-4.48-7.67-4.69-17.41-.56-27.42,4.46-10.83,13.29-20.52,24.86-27.3,7.61-4.45,15.59-7.17,23.24-8.22,15.63-2.15,29.84,2.65,36.38,13.8,9.74,16.63-1.16,41.18-24.3,54.72h-.01Z"/>
  <path class="st0" d="M945.47,1094.66c-.59-4.26-4.52-7.24-8.78-6.65s-7.24,4.52-6.65,8.78l24.37,176.87c-16.4-9.25-40.05-8.52-60.83,3.64-13.45,7.88-23.81,19.37-29.15,32.35-5.65,13.72-5.13,27.48,1.47,38.75,9.21,15.73,28.5,22.81,48.99,19.99,8.87-1.22,17.96-4.3,26.56-9.33,23.39-13.69,35.92-37.67,32.33-58.29-.01-.25,0-.49-.03-.74l-28.29-205.37h.01ZM933.58,1345.61c-21.05,12.32-45.38,10.05-54.24-5.08-4.08-6.98-4.27-15.84-.51-24.95,4.06-9.85,12.09-18.67,22.62-24.84,6.92-4.05,14.19-6.52,21.15-7.48,14.22-1.96,27.15,2.41,33.1,12.56,8.86,15.13-1.06,37.47-22.11,49.79h-.01Z"/>
  <path class="st0" d="M441.18,198.88c-.04.2-.1.39-.15.59-2.16,17.04-17.75,32.82-39.4,37.94-7.95,1.88-15.82,2.11-23.08.93-16.76-2.71-30.18-12.91-33.62-27.46-2.47-10.43.43-21.36,8.17-30.76,7.32-8.9,18.2-15.42,30.65-18.36,19.21-4.55,37.94.58,48.58,11.77l23.44-144.6c.56-3.49,3.85-5.86,7.33-5.29s5.86,3.85,5.29,7.33l-27.23,167.89h0Z"/>
  <path class="st0" d="M1167.82,1987.86c0,.23-.06.45-.08.67.03,19-14.86,38.51-37.89,47.16-8.46,3.18-17.07,4.53-25.19,4.26-18.76-.63-34.93-9.92-40.75-25.41-4.17-11.1-2.52-23.49,4.65-34.89,6.78-10.8,17.81-19.48,31.06-24.45,20.44-7.69,41.71-4.7,54.95,6.1l5.41-161.95c.14-3.9,3.4-6.96,7.3-6.83s6.96,3.4,6.83,7.3l-6.28,188.05h.01Z"/>
  <path class="st0" d="M664.36,1197.94c0,.2-.04.39-.05.59.59,16.7-11.94,34.31-31.95,42.6-7.35,3.05-14.88,4.49-22.03,4.49-16.53,0-31.01-7.7-36.59-21.15-3.99-9.64-2.92-20.59,3.06-30.83,5.65-9.69,15.09-17.65,26.6-22.42,17.76-7.36,36.55-5.37,48.51,3.74v-142.6c0-3.43,2.78-6.23,6.23-6.23s6.23,2.78,6.23,6.23v165.58h0Z"/>
  <path class="st0" d="M1060.17,1453.85l3,20.97.83,5.78,16.56,115.97c-11.33-6.31-27.62-5.73-41.87,2.71-9.24,5.47-16.33,13.41-19.98,22.37-3.85,9.47-3.44,18.94,1.14,26.69,6.39,10.8,19.71,15.61,33.81,13.59,6.11-.88,12.36-3.02,18.26-6.51,16.06-9.51,24.62-26.07,22.08-40.26-.01-.16,0-.34-.02-.5l-19.65-137.63,86-29.75,16.27,113.9c-11.33-6.31-27.62-5.73-41.87,2.71-9.24,5.47-16.33,13.41-19.98,22.37-3.85,9.47-3.44,18.94,1.14,26.69,6.39,10.8,19.71,15.61,33.81,13.59,6.11-.88,12.36-3.02,18.26-6.51,16.06-9.51,24.62-26.07,22.08-40.26-.01-.16,0-.34-.02-.5l-19.35-135.58-.83-5.78-3-20.97-106.66,36.9h.01Z"/>
  <path class="st0" d="M767.82,770.33l2.5-17.48.69-4.82,13.8-96.66c-9.44,5.26-23.02,4.78-34.9-2.26-7.7-4.56-13.61-11.18-16.65-18.65-3.21-7.89-2.87-15.79.95-22.25,5.33-9,16.43-13.01,28.18-11.33,5.09.73,10.3,2.52,15.22,5.43,13.39,7.93,20.52,21.73,18.4,33.56-.01.13,0,.28-.02.42l-16.38,114.72,71.68,24.8,13.56-94.94c-9.44,5.26-23.02,4.78-34.9-2.26-7.7-4.56-13.61-11.18-16.65-18.65-3.21-7.89-2.87-15.79.95-22.25,5.33-9,16.43-13.01,28.18-11.33,5.09.73,10.3,2.52,15.22,5.43,13.39,7.93,20.52,21.73,18.4,33.56-.01.13,0,.28-.02.42l-16.13,113.01-.69,4.82-2.5,17.48-88.9-30.76h.01Z"/>
  <path class="st0" d="M703.76,199.23l-2.16,14.46-1.84,12.28-2.27,15.18-3.98,26.75-10.06,67.49c-9.06-9.3-24.84-13.4-40.93-9.37-10.42,2.6-19.49,8.2-25.55,15.75-6.4,7.98-8.72,17.19-6.54,25.92,3.05,12.18,14.44,20.6,28.53,22.7,6.11.91,12.71.63,19.38-1.03,18.13-4.53,31.06-17.96,32.69-32.29.03-.16.1-.32.12-.49l12.53-84.02,42.3,19.43,4.18-26.65-42.49-19.52,2.27-15.18,84.59,38.86-17.74,119.02c-9.06-9.3-24.84-13.4-40.93-9.37-10.42,2.6-19.49,8.2-25.55,15.75-6.4,7.98-8.72,17.19-6.54,25.92,3.05,12.18,14.44,20.6,28.53,22.7,6.11.91,12.71.63,19.38-1.03,18.13-4.53,31.06-17.96,32.69-32.29.03-.16.1-.32.12-.49l20.2-135.54.86-5.78,3.12-20.97-104.9-48.2h0Z"/>
  <path class="st0" d="M579.71,1595.79v-138.11c10.36,7.88,26.63,9.62,42,3.24,9.96-4.12,18.13-11.02,23.02-19.4,5.17-8.86,6.11-18.34,2.65-26.68-4.82-11.64-17.37-18.31-31.67-18.31-6.19,0-12.71,1.25-19.07,3.89-17.32,7.17-28.16,22.41-27.65,36.87-.01.16-.04.33-.04.51v85.21l-44.84-13.03-.2,27.07,45.04,13.08v15.4l-89.68-26.05v-120.7c10.36,7.88,26.63,9.62,42,3.24,9.96-4.12,18.13-11.02,23.02-19.4,5.17-8.86,6.11-18.34,2.65-26.68-4.82-11.64-17.37-18.31-31.67-18.31-6.19,0-12.71,1.25-19.07,3.89-17.32,7.17-28.16,22.41-27.65,36.87-.01.16-.04.33-.04.51v164.6l111.22,32.31h0Z"/>
  <path class="st0" d="M881.38,1613.04c-4.74-4.81-11.13-8.26-16.62-11.73-6.4-4.5-11.83-10.58-16.07-17.22-2-2.85-5.36-2.67-8.04-1.91-.38-.03-.75-.03-1.14.03-2.91.42-4.93,3.21-4.48,6.21l17.99,125.1c-11.3-6.52-27.49-6-41.61,2.63-9.15,5.58-16.16,13.72-19.72,22.91-3.77,9.7-3.3,19.45,1.29,27.42,6.42,11.11,19.68,16.11,33.69,14.09,6.07-.87,12.27-3.06,18.11-6.63,15.92-9.7,24.32-26.67,21.72-41.26,0-.16,0-.35-.03-.52l-12.03-83.63c5.33,4.32,11.24,7.87,17.5,10.26,22.85,9.6,34.27,31.48,23.81,55.63-.28.7.64,1.17,1.03.56,10.2-17.03,8.55-36.23-3.15-51.06,7.44-17.87,2.72-37.16-12.26-50.87h0ZM871.18,1645.92c-6.4-4.5-11.83-10.58-16.07-17.22-1.02-1.45-2.39-2.11-3.85-2.31l-3.22-22.43c5.33,4.32,11.24,7.87,17.5,10.26,20.34,8.54,31.6,26.82,26.46,47.76-1.3-1.49-2.7-2.93-4.2-4.31-4.74-4.81-11.13-8.26-16.62-11.73h0Z"/>
  <path class="st0" d="M1136.45,442.07c-3.81-6.84-9.92-12.73-15.01-18.36-5.79-7.04-9.94-15.5-12.57-24.2-1.41-4.02-5.71-4.81-9.14-4.76-.44-.2-.9-.37-1.4-.44-2.79-.41-5.39,1.53-5.8,4.33l-16.89,116.05c-8.67-8.83-23.73-12.69-39.04-8.8-9.93,2.52-18.56,7.88-24.3,15.09-6.08,7.62-8.25,16.41-6.14,24.73,2.95,11.6,13.82,19.59,27.27,21.55,5.82.85,12.11.56,18.47-1.04,17.26-4.37,29.55-17.22,31.04-30.88.03-.15.08-.31.11-.47l16.91-116.15c4.94,7.43,11.04,14.11,18.12,19.36,22.8,18.06,28.55,45.83,8.7,68.85-.55.68.35,1.49.98.96,19.75-17.57,22.72-43.41,8.7-65.85v.02Z"/>
  <path class="st0" d="M652.87,1915.58c-4.55,7.17-11.54,13.15-17.41,18.93-6.71,7.26-11.74,16.16-15.14,25.4-1.79,4.26-6.49,4.85-10.19,4.57-.49.19-1,.34-1.54.39-3.05.27-5.74-2-6-5.05l-11-126.74c-9.93,9.01-26.49,12.24-42.83,7.07-10.6-3.35-19.6-9.7-25.37-17.87-6.09-8.63-7.9-18.29-5.09-27.16,3.92-12.39,16.2-20.34,30.89-21.62,6.36-.55,13.16.16,19.93,2.3,18.42,5.82,30.91,20.5,31.67,35.39.02.17.08.34.09.51l11.01,126.84c5.83-7.74,12.84-14.58,20.84-19.82,25.81-18.12,33.79-47.83,13.75-74.01-.55-.77.47-1.6,1.12-.99,20.29,20.27,21.87,48.44,5.28,71.85h-.01Z"/>
  <path class="st0" d="M258.39,807.05c-2.08-12.38-12.76-21.65-26.64-24.85-6.01-1.38-12.61-1.63-19.38-.49-18.41,3.09-32.34,15.44-35.09,29.59-.04.15-.12.31-.15.48l-27.65,119.88c-4.53-8.19-10.32-15.69-17.27-21.78-22.25-20.83-25.88-50.33-3.17-72.67.63-.65-.24-1.59-.94-1.09-22.15,16.65-27.46,43.4-14.75,68.03,3.39,7.47,9.27,14.15,14.1,20.46,5.45,7.85,9.06,17.04,11.06,26.35,1.13,4.32,5.56,5.51,9.14,5.75.44.25.91.46,1.43.58,2.88.66,5.77-1.14,6.43-4.02l27.63-119.79c8.29,9.96,23.69,15.29,40.03,12.55,10.58-1.77,20.06-6.63,26.68-13.67,7-7.44,10.03-16.43,8.55-25.3h-.01Z"/>
</svg>