<?xml version="1.0" encoding="UTF-8"?>
<svg id="Livello_1" xmlns="http://www.w3.org/2000/svg" version="1.1" viewBox="0 0 83.2 96">
  <!-- Generator: Adobe Illustrator 29.8.1, SVG Export Plug-In . SVG Version: 2.1.1 Build 2)  -->
  <defs>
    <style>
      .st0 {
        fill: #fff;
      }
    </style>
  </defs>
  <path class="st0" d="M72.84,20.53c-.65-.33-1.28-.7-1.89-1.1-1.78-1.18-3.41-2.56-4.85-4.12-3.62-4.14-4.97-8.34-5.47-11.29h.02C60.23,1.58,60.41,0,60.43,0h-16.49v63.75c0,.86,0,1.7-.04,2.54,0,.1,0,.2-.02.31,0,.05,0,.09-.01.14v.04c-.17,2.29-.91,4.5-2.14,6.43-1.23,1.94-2.91,3.54-4.91,4.68-2.08,1.18-4.43,1.8-6.82,1.8-7.68,0-13.91-6.26-13.91-14s6.23-14,13.91-14c1.45,0,2.9.23,4.28.68l.02-16.79c-4.2-.54-8.46-.21-12.52.98-4.06,1.19-7.83,3.21-11.08,5.92-2.84,2.47-5.23,5.42-7.06,8.71-.7,1.2-3.32,6.02-3.64,13.85-.2,4.44,1.13,9.04,1.77,10.95v.04c.4,1.12,1.95,4.94,4.48,8.16,2.04,2.58,4.44,4.85,7.14,6.74v-.04l.04.04c7.98,5.42,16.83,5.07,16.83,5.07,1.53-.06,6.66,0,12.49-2.76,6.46-3.06,10.14-7.62,10.14-7.62,2.35-2.73,4.22-5.83,5.53-9.19,1.49-3.92,1.99-8.63,1.99-10.51v-33.82c.2.12,2.86,1.88,2.86,1.88,0,0,3.84,2.46,9.83,4.06,4.3,1.14,10.08,1.38,10.08,1.38v-16.37c-2.03.22-6.15-.42-10.36-2.52Z"/>
</svg>