<?xml version="1.0" encoding="UTF-8"?>
<svg id="Livello_1" xmlns="http://www.w3.org/2000/svg" version="1.1" viewBox="0 0 256 256">
  <!-- Generator: Adobe Illustrator 29.8.1, SVG Export Plug-In . SVG Version: 2.1.1 Build 2)  -->
  <defs>
    <style>
      .st0 {
        fill: #fff;
      }

      .st1 {
        fill: #008fbb;
      }
    </style>
  </defs>
  <circle class="st1" cx="128" cy="128" r="128"/>
  <path class="st0" d="M164.05,109.84c10.73-1.66,19.4-3.56,25.66-5.09,8.41-2.07,15.97-4.36,19.12-5.32,2.33-.72,4.29-1.33,5.7-1.77h0c4.7-1.51,8.59-2.76,9.8-5.62.07-.15.89-2.16-.06-4.09-.51-1.05-1.31-1.61-1.64-1.82-1.46-.94-3.26-1.1-4.42-.63-7.84,3.22-17,6.41-27.37,9.12-9.18,2.4-18.37,4.14-27.54,5.23-2.41-36.79-.03-65.53,0-65.83.21-2.52-1.41-4.71-3.94-5.33-.04,0-.08-.02-.11-.03-2.55-.47-5,1.04-5.72,3.51-5.07,17.24-16.14,40.08-32.92,67.85-.76-.08-1.51-.18-2.24-.27-22.71-2.89-39.39-9.51-47.36-13.23-2.15-1.22-4.22-2.26-6.18-3.16-2.41-1.1-5.28-.12-6.52,2.22-1.24,2.35-.43,5.26,1.85,6.63.25.15,2.51,1.5,6.57,3.41,10.22,5.85,23.08,15.66,38.25,29.21-27.57,42.13-56.06,78.26-56.34,78.62-1.72,2.16-1.35,5.33.81,7.03.6.47,1.3.8,2.05.97,1.89.41,3.8-.27,5-1.78,1.19-1.5,29-36.73,56.07-77.93,30.37,28.17,58.72,60.33,59,60.66,1.59,1.82,4.27,2.23,6.34.99,2.07-1.24,2.97-3.78,2.12-6.05-7.93-21.18-13.29-47.23-15.94-77.49h-.04ZM152.21,62.85c-.07,10.51.16,23.62,1.1,37.92-7.21.47-14.43.54-21.52.19,8.23-13.9,15.07-26.66,20.42-38.09h0v-.02ZM110.46,116.28c-3.93-3.48-7.74-6.74-11.4-9.75,5.17,1.17,10.43,2.14,15.75,2.88-1.41,2.25-2.87,4.56-4.35,6.87ZM118.09,123.17c2.73-4.25,5.37-8.46,7.87-12.55,9.23.72,18.66.77,28.11.14,1.88,21.41,5.09,40.9,9.6,58.12-11.19-12.01-28.03-29.53-45.6-45.71h.02,0Z"/>
</svg>