<?xml version="1.0" encoding="UTF-8"?>
<svg id="Livello_1" xmlns="http://www.w3.org/2000/svg" version="1.1" xmlns:inkscape="http://www.inkscape.org/namespaces/inkscape" xmlns:sodipodi="http://sodipodi.sourceforge.net/DTD/sodipodi-0.dtd" viewBox="0 0 1000 1000">
  <!-- Generator: Adobe Illustrator 29.8.1, SVG Export Plug-In . SVG Version: 2.1.1 Build 2)  -->
  <defs>
    <style>
      .st0 {
        fill: #fff;
      }
    </style>
  </defs>
  <path class="st0" d="M500.05.37c-135.79,0-152.83.59-206.17,3.02-53.23,2.44-89.56,10.86-121.36,23.21-32.89,12.76-60.78,29.83-88.57,57.61-27.81,27.77-44.9,55.65-57.71,88.5-12.4,31.78-20.83,68.1-23.23,121.27C.63,347.27,0,364.31,0,500s.6,152.67,3.02,205.96c2.45,53.19,10.88,89.5,23.23,121.27,12.78,32.86,29.86,60.74,57.67,88.51,27.78,27.79,55.68,44.91,88.54,57.67,31.81,12.36,68.16,20.78,121.38,23.21,53.33,2.42,70.37,3.02,206.15,3.02s152.79-.59,206.13-3.02c53.23-2.44,89.61-10.86,121.42-23.21,32.88-12.76,60.73-29.87,88.51-57.67,27.81-27.77,44.9-55.65,57.71-88.5,12.29-31.78,20.73-68.1,23.23-121.27,2.4-53.29,3.02-70.28,3.02-205.97s-.63-152.72-3.02-206.02c-2.5-53.19-10.94-89.5-23.23-121.26-12.81-32.86-29.9-60.74-57.71-88.51-27.81-27.79-55.63-44.86-88.54-57.61-31.88-12.36-68.23-20.78-121.46-23.21-53.33-2.43-70.31-3.02-206.15-3.02h.16ZM455.19,90.4c13.31-.02,28.17,0,44.85,0,133.5,0,149.32.48,202.04,2.87,48.75,2.23,75.21,10.37,92.83,17.21,23.33,9.06,39.97,19.88,57.46,37.37,17.5,17.49,28.33,34.14,37.42,57.46,6.84,17.59,15,44.03,17.22,92.74,2.4,52.67,2.92,68.49,2.92,201.83s-.52,149.16-2.92,201.83c-2.23,48.71-10.37,75.15-17.22,92.74-9.06,23.32-19.92,39.92-37.42,57.4-17.5,17.49-34.12,28.31-57.46,37.37-17.6,6.87-44.08,14.99-92.83,17.22-52.71,2.39-68.54,2.91-202.04,2.91s-149.33-.52-202.04-2.91c-48.75-2.25-75.21-10.39-92.84-17.23-23.33-9.06-40-19.88-57.5-37.37-17.5-17.49-28.33-34.1-37.42-57.43-6.84-17.59-15-44.03-17.22-92.74-2.4-52.67-2.88-68.49-2.88-201.91s.48-149.16,2.88-201.83c2.23-48.71,10.37-75.15,17.22-92.77,9.06-23.32,19.92-39.97,37.42-57.46,17.5-17.49,34.17-28.31,57.5-37.39,17.63-6.87,44.09-14.99,92.84-17.23,46.13-2.08,64-2.71,157.19-2.81v.13ZM766.95,173.36c-33.13,0-60,26.82-60,59.94s26.88,59.96,60,59.96,60-26.86,60-59.96-26.88-59.96-60-59.96v.02ZM500.05,243.42c-141.8,0-256.77,114.88-256.77,256.58s114.97,256.53,256.77,256.53,256.73-114.83,256.73-256.53-114.94-256.58-256.74-256.58h.01ZM500.05,333.46c92.04,0,166.67,74.56,166.67,166.54s-74.63,166.54-166.67,166.54-166.67-74.57-166.67-166.54,74.62-166.54,166.67-166.54h0Z" inkscape:connector-curvature="0"/>
</svg>