<?xml version="1.0" encoding="UTF-8"?>
<svg id="Livello_1" xmlns="http://www.w3.org/2000/svg" version="1.1" viewBox="0 0 1488 2063.55">
  <!-- Generator: Adobe Illustrator 29.8.1, SVG Export Plug-In . SVG Version: 2.1.1 Build 2)  -->
  <defs>
    <style>
      .st0 {
        fill: #224f5d;
      }
    </style>
  </defs>
  <path class="st0" d="M257.04,1219.71c23.08,3.51,43.52,19.47,50.55,41.91,9.55,30.5-8.92,57.85-37.54,67.93-4.44,1.57-9.16,2.33-13.73,3.41,2.91,19.01,3.18,38.77-3.23,57.25-12.92,37.25-70.1,32.67-90.01,4.11-13.33-19.11-1.52-49.19,23.4-45.82,29.43,3.98,36.43,37.74,7.79,48.27l-6.41,1.6c11.78,7.08,25.81,8.16,38.04,1.74,22.19-11.65,16.51-45.61,14.29-66.25-.24-1.89-1.94-1.04-3.28-1.33-40.16-8.88-75.4-26.88-83.65-70.83-10.84-57.74,43.41-92.05,88.11-112.71,0-5.75-.87-11.42-.9-17.19-.16-26.01,8.27-55.52,26-75.07,11.56-12.75,33.42-27.38,44.38-5.51,10.1,20.17,5.71,56.41-2,76.82-8.8,23.29-21.28,36.93-41.63,50.1-3.34,2.16-6.82,4.13-10.05,6.46-1.01,11.67.09,23.41-.15,35.11h.02ZM263.72,1138.83c16.71-9.08,36.7-27.61,38.62-47.29,1.12-11.39-4.32-22.15-17.18-16.19-21.78,14.88-28.46,42.63-31.1,67.49.39.58,8.61-3.47,9.64-4.03h.01ZM240.17,1219.59l.49-26.5c-18.01,9.74-36.37,18.7-51.55,32.74-30.81,28.5-18.69,67.46,15.73,85.69,6.64,3.52,15.95,7.22,23.24,8.67,1.78.35,10.18,1.51,11.25.92l.63-72.09c-13.91,1.28-25.37,15.09-25.67,28.82-.15,7.07,3.52,15.23,11.7,14.75.81-.04,1.93-.33,2.92-.74,2.95-1.2,4.59-3.39,5.26-4.4.15.34-.67,6.27-.92,7.02-4.12,12.04-21.86,6.44-28.98.29-19.59-16.86-12.72-51.65,7.5-65.56,8.03-5.52,18.76-8.76,28.39-9.63h0ZM257.56,1319c28.36-8.35,35.67-46.65,9.93-63.05-1.51-.97-8.98-5.16-10.23-4.81l.31,67.86h-.01Z"/>
  <path class="st0" d="M447.87,541.91c20.25-7.39,43.88-3.54,59.53,11.51,21.26,20.46,18.44,50.8-.26,71.66-2.9,3.24-6.39,5.95-9.6,8.86,10.79,14.11,19.78,29.99,22.78,47.79,6.07,35.91-42.27,57.55-71.06,43.26-19.27-9.56-23.05-39.15-1.37-47.49,25.6-9.84,46.24,14.4,27.73,35.63l-4.47,4.13c12.68.51,24.52-4.84,31.59-15.47,12.81-19.28-6.87-44.26-17.82-59.99-1.02-1.43-2.04.02-3.25.37-36.46,10.62-72.99,11.69-99.17-20.25-34.4-41.96-5.68-93.8,21.35-130.37-2.56-4.66-5.77-8.86-8.36-13.52-11.67-20.99-17.94-48.63-12.25-72.32,3.71-15.45,14.91-37,33.5-24.15,17.14,11.85,29.65,43.15,32.46,63.09,3.2,22.76-.85,39.34-11.48,59.04-1.75,3.24-3.68,6.37-5.27,9.69,4.37,9.9,10.45,18.92,15.46,28.5l-.02.02ZM417.41,473.45c9.51-14.77,17.46-38.64,10.3-55.43-4.14-9.71-13.32-16.02-21.08-5.48-11.04,21.71-4.13,47.14,4.76,68.46.57.29,5.44-6.62,6.02-7.54h0ZM434.16,549.3l-11.36-21.68c-10.27,15.88-21.15,31.28-27.22,49.39-12.31,36.74,14.79,62.92,50.75,62.41,6.95-.09,16.12-1.22,22.67-3.29,1.59-.5,8.92-3.29,9.52-4.25l-31.47-58.65c-10.7,7.21-13.84,23.47-8,34.73,3.02,5.8,9.6,10.77,16.02,6.75.63-.4,1.42-1.13,2.04-1.89,1.86-2.28,2.22-4.78,2.31-5.9.28.21,2.25,5.37,2.38,6.09,2.01,11.58-14.84,14.9-23.34,13.1-23.35-4.96-33.22-36.18-23.01-56.42,4.05-8.03,11.32-15.41,18.72-20.39h0ZM492.35,622.07c19.27-19.34,8.2-53.6-19.94-55.46-1.65-.1-9.57-.2-10.42.65l30.36,54.82h0Z"/>
  <g>
    <path class="st0" d="M125.94,1585.47c-3.35,5.03-5.74,13.47-4.81,19.5,11.51-14.26,35.03-9.13,39.36,8.62,6.69,27.45-37.55,42.45-47.89,10.03-17.06-53.45,66.69-89.29,97.66-38.66,32.93,53.86-15.13,129.36-58.58,162.3-2.61,1.98-9.28,8.4-11.91,3.77-2.46-4.35,8.05-11.12,11.09-14.23,23.87-24.42,37.65-46.94,42.62-81.27,3.42-23.62-.02-55.66-15.58-74.76-13.55-16.62-40.67-12.22-51.97,4.71v-.02Z"/>
    <path class="st0" d="M238.03,1611.53c13.13-5.3,19.89,16.8,7.07,20.53-12.82,3.73-18.91-15.76-7.07-20.53Z"/>
    <path class="st0" d="M224.65,1580.25c-12.81-7.88.09-27.56,11.39-17.19,9.81,9.01-1.54,23.23-11.39,17.19Z"/>
  </g>
  <g>
    <path class="st0" d="M1228.74,829.84c-4.71,5.26-8.86,14.66-8.78,21.79,15.66-14.61,42.05-4.82,44.14,16.45,3.23,32.87-50.44,42.96-57.09,3.74-10.96-64.69,91.88-92.41,119.4-28.7,29.26,67.76-38.78,147.26-94.47,178.24-3.35,1.86-12.12,8.19-14.4,2.4-2.13-5.43,11.14-11.55,15.18-14.65,31.65-24.35,51.3-48.15,62.69-87.08,7.84-26.78,9.12-64.43-5.76-89.1-12.95-21.47-45.07-20.83-60.93-3.09h0Z"/>
    <path class="st0" d="M1354.21,878.42c16.08-3.97,20.27,22.72,4.81,24.93s-19.3-21.35-4.81-24.93Z"/>
    <path class="st0" d="M1343.86,840.02c-13.53-11.22,4.63-31.89,16-18.02,9.89,12.04-5.61,26.63-16,18.02Z"/>
  </g>
  <g>
    <path class="st0" d="M1259.55,39.9l28.2,67.4c13.51-3.19,11.34-13.55,8.78-24.32,4.09.57,6.89,7.35,10.98,8.67,8.31,2.69,17.53-2.98,19.65-11.28,4.63-18.1-17.56-61.68-39.25-38.54,35.15,19.46-12.15,46.86-14.08,11.81-1.64-29.92,37.14-36.75,56.13-12.28,14.58,18.78,16.74,53.07-11.15,59.72-5.75,1.37-19.7-3.57-11.86,10.93,6.08,11.25,9.45.42,13.88-2.66,31.39-21.85,62.83,26.3,47.69,57.18-10.87,22.17-47.75,19.38-49.71-4.61-1.99-24.35,35.65-13.16,23.63,10.29,33.6,1.57,14.28-52.61-3.97-56.89-6.73-1.58-15.04,2.33-17.98,8.46-2.13,4.45,1.42,9.86-1.3,13.4-5.87-9.38-11.73-18.2-23.49-10.82l28.2,67.4-5.86,2.45-64.37-153.85,5.86-2.45h.02Z"/>
    <rect class="st0" x="1251.2" y="45.13" width="25.41" height="166.77" transform="translate(48.31 497.7) rotate(-22.7)"/>
  </g>
  <g>
    <path class="st0" d="M274.22,1846.81l-8.69,67.19c12.33,3.71,15.4-5.6,18.35-15.44,3.02,2.35,2.12,9.1,4.78,12.06,5.42,6.02,15.45,5.76,21,.08,12.12-12.38,14.56-57.65-13.59-49.16,19.17,31.95-31.52,31.95-16.79,2.94,12.58-24.77,46.87-12.24,50.75,16.22,2.97,21.85-11.22,50.36-36.69,42.74-5.25-1.58-14.15-12.02-14.6,3.26-.35,11.85,7.39,4.73,12.38,4.31,35.34-2.95,38.19,50.29,11.71,68.04-19.02,12.75-47.32-6.64-37.74-26.8,9.71-20.46,34.72,6,14.19,19.24,26.22,16.86,35.9-35.58,23.24-47.5-4.67-4.39-13.15-5.12-18.35-1.56-3.78,2.58-3.44,8.57-7.27,10.15-.35-10.26-.96-20.06-13.82-19.6l-8.69,67.19-5.84-.75,19.82-153.35,5.84.75h-.01Z"/>
    <rect class="st0" x="159.23" y="1907.94" width="154.64" height="23.56" transform="translate(-1697.66 1908.4) rotate(-82.64)"/>
  </g>
  <g>
    <path class="st0" d="M659.94,822.56l-18.61,67.78c12.13,5.59,16.63-3.54,21.08-13.21,2.77,2.86.86,9.65,3.18,13.08,4.71,6.97,15.05,8.14,21.57,3.11,14.23-10.96,23.27-57.14-6.88-52.48,15.09,35.6-36.99,28.29-17.67.59,16.5-23.64,49.94-5.81,49.82,23.98-.09,22.87-18.79,50.13-43.86,38.63-5.18-2.37-12.81-14.38-15.48,1.24-2.06,12.13,6.91,5.92,12.1,6.21,36.74,2.06,32,57.19,2.22,71.61-21.38,10.36-47.67-13.64-34.93-32.98,12.74-19.34,34.82,11.17,11.81,21.81,24.52,21.11,42.02-31.4,30.73-45.45-4.16-5.18-12.78-7.15-18.64-4.25-4.25,2.1-4.76,8.32-8.94,9.38,1.11-10.59,1.91-20.74-11.38-22.12l-18.61,67.78-5.89-1.61,42.48-154.74,5.89,1.61h0Z"/>
    <rect class="st0" x="530.49" y="880.04" width="160.45" height="24.44" transform="translate(-411.38 1244.99) rotate(-74.65)"/>
  </g>
  <path class="st0" d="M178.89,125.79c-.65-4.68-4.97-7.96-9.65-7.31s-7.96,4.97-7.31,9.65l26.78,194.38c-18.02-10.17-44.01-9.36-66.85,4-14.78,8.66-26.17,21.29-32.04,35.55-6.21,15.08-5.64,30.2,1.62,42.59,10.12,17.29,31.32,25.07,53.84,21.97,9.75-1.34,19.74-4.73,29.19-10.25,25.71-15.05,39.48-41.4,35.53-64.06-.01-.27,0-.54-.03-.81l-31.09-225.7h.01ZM165.82,401.58c-23.13,13.54-49.87,11.04-59.61-5.58-4.48-7.67-4.69-17.41-.56-27.42,4.46-10.83,13.29-20.52,24.86-27.3,7.61-4.45,15.59-7.17,23.24-8.22,15.63-2.15,29.84,2.65,36.38,13.8,9.74,16.63-1.16,41.18-24.3,54.72h-.01Z"/>
  <path class="st0" d="M1120.04,1094.66c-.59-4.26-4.52-7.24-8.78-6.65s-7.24,4.52-6.65,8.78l24.37,176.87c-16.4-9.25-40.05-8.52-60.83,3.64-13.45,7.88-23.81,19.37-29.15,32.35-5.65,13.72-5.13,27.48,1.47,38.75,9.21,15.73,28.5,22.81,48.99,19.99,8.87-1.22,17.96-4.3,26.56-9.33,23.39-13.69,35.92-37.67,32.33-58.29-.01-.25,0-.49-.03-.74l-28.29-205.37h.01ZM1108.15,1345.61c-21.05,12.32-45.38,10.05-54.24-5.08-4.08-6.98-4.27-15.84-.51-24.95,4.06-9.85,12.09-18.67,22.62-24.84,6.92-4.05,14.19-6.52,21.15-7.48,14.22-1.96,27.15,2.41,33.1,12.56,8.86,15.13-1.06,37.47-22.11,49.79h-.01Z"/>
  <path class="st0" d="M500.97,226.35c-.04.23-.11.45-.17.68-2.5,19.71-20.53,37.97-45.58,43.89-9.2,2.17-18.3,2.44-26.69,1.08-19.38-3.14-34.91-14.94-38.89-31.76-2.85-12.07.5-24.71,9.46-35.58,8.46-10.29,21.06-17.83,35.45-21.24,22.22-5.27,43.89.67,56.2,13.62l27.12-167.26c.65-4.03,4.46-6.77,8.48-6.12s6.77,4.46,6.12,8.48l-31.49,194.21h0Z"/>
  <path class="st0" d="M1347.79,1966.48c0,.23-.06.45-.08.67.03,19-14.86,38.51-37.89,47.16-8.46,3.18-17.07,4.53-25.19,4.26-18.76-.63-34.93-9.92-40.75-25.41-4.17-11.1-2.52-23.49,4.65-34.89,6.78-10.8,17.81-19.48,31.06-24.45,20.44-7.69,41.71-4.7,54.95,6.1l5.41-161.95c.14-3.9,3.4-6.96,7.3-6.83s6.96,3.4,6.83,7.3l-6.28,188.05h.01Z"/>
  <path class="st0" d="M818.99,1230.34c0,.23-.04.45-.05.67.67,19.17-13.7,39.37-36.67,48.89-8.43,3.5-17.07,5.16-25.29,5.16-18.97,0-35.59-8.83-41.99-24.27-4.58-11.07-3.35-23.63,3.51-35.38,6.49-11.12,17.32-20.26,30.53-25.73,20.38-8.45,41.95-6.16,55.68,4.29v-163.66c0-3.94,3.2-7.14,7.14-7.14s7.14,3.2,7.14,7.14v190.03h0Z"/>
  <path class="st0" d="M1254.74,1453.85l3,20.97.83,5.78,16.56,115.97c-11.33-6.31-27.62-5.73-41.87,2.71-9.24,5.47-16.33,13.41-19.98,22.37-3.85,9.47-3.44,18.94,1.14,26.69,6.39,10.8,19.71,15.61,33.81,13.59,6.11-.88,12.36-3.02,18.26-6.51,16.06-9.51,24.62-26.07,22.08-40.26-.01-.16,0-.34-.02-.5l-19.65-137.63,86-29.75,16.27,113.9c-11.33-6.31-27.62-5.73-41.87,2.71-9.24,5.47-16.33,13.41-19.98,22.37-3.85,9.47-3.44,18.94,1.14,26.69,6.39,10.8,19.71,15.61,33.81,13.59,6.11-.88,12.36-3.02,18.26-6.51,16.06-9.51,24.62-26.07,22.08-40.26-.01-.16,0-.34-.02-.5l-19.35-135.58-.83-5.78-3-20.97-106.66,36.9h.01Z"/>
  <path class="st0" d="M882.24,790.54l3.21-22.42.88-6.18,17.7-123.96c-12.11,6.75-29.52,6.13-44.76-2.9-9.88-5.85-17.45-14.34-21.35-23.92-4.12-10.12-3.68-20.25,1.22-28.54,6.84-11.54,21.07-16.69,36.14-14.53,6.53.94,13.21,3.23,19.52,6.96,17.17,10.17,26.32,27.87,23.6,43.04-.01.17,0,.36-.03.54l-21.01,147.13,91.93,31.81,17.39-121.76c-12.11,6.75-29.52,6.13-44.76-2.9-9.88-5.85-17.45-14.34-21.35-23.92-4.12-10.12-3.68-20.25,1.22-28.54,6.84-11.54,21.07-16.69,36.14-14.53,6.53.94,13.21,3.23,19.52,6.96,17.17,10.17,26.32,27.87,23.6,43.04-.01.17,0,.36-.03.54l-20.69,144.93-.88,6.18-3.21,22.42-114.01-39.45h.01Z"/>
  <path class="st0" d="M826.39,111.34l-2.93,19.65-2.49,16.69-3.08,20.63-5.41,36.36-13.67,91.72c-12.31-12.63-33.76-18.21-55.63-12.74-14.17,3.53-26.49,11.15-34.72,21.4-8.69,10.84-11.85,23.36-8.88,35.23,4.14,16.56,19.62,28,38.78,30.86,8.3,1.24,17.27.86,26.33-1.4,24.64-6.16,42.21-24.41,44.42-43.88.04-.22.13-.44.16-.67l17.03-114.19,57.48,26.41,5.68-36.22-57.74-26.52,3.08-20.63,114.96,52.81-24.12,161.75c-12.31-12.63-33.76-18.21-55.63-12.74-14.17,3.53-26.49,11.15-34.72,21.4-8.69,10.84-11.85,23.36-8.88,35.23,4.14,16.56,19.62,28,38.78,30.86,8.3,1.24,17.27.86,26.33-1.4,24.64-6.16,42.21-24.41,44.42-43.88.04-.22.13-.44.16-.67l27.46-184.2,1.17-7.85,4.25-28.49-142.56-65.5h0Z"/>
  <path class="st0" d="M574.12,1632.96v-153.07c11.48,8.74,29.52,10.66,46.55,3.59,11.04-4.57,20.1-12.21,25.52-21.51,5.73-9.82,6.77-20.33,2.94-29.57-5.35-12.9-19.25-20.29-35.1-20.29-6.86,0-14.08,1.38-21.14,4.31-19.19,7.95-31.21,24.84-30.65,40.87-.01.18-.05.37-.05.56v94.44l-49.7-14.44-.23,30,49.92,14.5v17.07l-99.39-28.87v-133.78c11.48,8.74,29.52,10.66,46.55,3.59,11.04-4.57,20.1-12.21,25.52-21.51,5.73-9.82,6.77-20.33,2.94-29.57-5.35-12.9-19.25-20.29-35.1-20.29-6.86,0-14.08,1.38-21.14,4.31-19.19,7.95-31.21,24.84-30.65,40.87-.01.18-.05.37-.05.56v182.43l123.26,35.81h0Z"/>
  <path class="st0" d="M1020.76,1584.17c-6.74-6.84-15.83-11.74-23.64-16.69-9.11-6.4-16.82-15.05-22.86-24.5-2.85-4.05-7.62-3.8-11.44-2.71-.53-.04-1.07-.04-1.62.04-4.14.59-7.01,4.56-6.38,8.84l25.59,177.98c-16.08-9.28-39.11-8.54-59.2,3.74-13.02,7.94-22.99,19.52-28.05,32.6-5.37,13.81-4.7,27.67,1.83,39.01,9.13,15.81,28,22.92,47.93,20.05,8.63-1.24,17.45-4.35,25.76-9.43,22.65-13.81,34.6-37.94,30.9-58.7,0-.23,0-.5-.04-.74l-17.11-118.97c7.58,6.15,15.98,11.19,24.9,14.59,32.5,13.65,48.75,44.78,33.88,79.14-.4.99.92,1.66,1.47.8,14.51-24.23,12.16-51.54-4.49-72.64,10.58-25.42,3.88-52.86-17.44-72.38v-.02ZM1006.25,1630.93c-9.11-6.4-16.82-15.05-22.86-24.5-1.45-2.06-3.4-3-5.48-3.28l-4.58-31.91c7.58,6.15,15.98,11.19,24.9,14.59,28.93,12.15,44.95,38.15,37.64,67.95-1.85-2.12-3.84-4.16-5.98-6.13-6.74-6.84-15.83-11.74-23.64-16.69v-.02Z"/>
  <path class="st0" d="M1331.02,442.07c-3.81-6.84-9.92-12.73-15.01-18.36-5.79-7.04-9.94-15.5-12.57-24.2-1.41-4.02-5.71-4.81-9.14-4.76-.44-.2-.9-.37-1.4-.44-2.79-.41-5.39,1.53-5.8,4.33l-16.89,116.05c-8.67-8.83-23.73-12.69-39.04-8.8-9.93,2.52-18.56,7.88-24.3,15.09-6.08,7.62-8.25,16.41-6.14,24.73,2.95,11.6,13.82,19.59,27.27,21.55,5.82.85,12.11.56,18.47-1.04,17.26-4.37,29.55-17.22,31.04-30.88.03-.15.08-.31.11-.47l16.91-116.15c4.94,7.43,11.04,14.11,18.12,19.36,22.8,18.06,28.55,45.83,8.7,68.85-.55.68.35,1.49.98.96,19.75-17.57,22.72-43.41,8.7-65.85v.02Z"/>
  <path class="st0" d="M698.96,1913.85c-5.42,8.54-13.75,15.67-20.74,22.55-8,8.65-13.99,19.25-18.03,30.26-2.13,5.08-7.73,5.78-12.14,5.45-.58.22-1.19.41-1.84.46-3.64.32-6.83-2.38-7.15-6.01l-13.1-150.97c-11.83,10.73-31.55,14.58-51.01,8.42-12.62-3.99-23.35-11.55-30.22-21.28-7.26-10.28-9.41-21.79-6.07-32.35,4.67-14.75,19.3-24.23,36.79-25.75,7.57-.66,15.68.19,23.74,2.74,21.94,6.93,36.82,24.42,37.73,42.16.03.2.09.41.11.61l13.11,151.09c6.94-9.21,15.29-17.37,24.83-23.61,30.75-21.59,40.25-56.98,16.38-88.16-.66-.91.56-1.9,1.34-1.18,24.17,24.14,26.06,57.7,6.29,85.58h-.01Z"/>
  <path class="st0" d="M289.03,771.32c-2.57-15.32-15.79-26.8-32.97-30.75-7.43-1.71-15.61-2.02-23.98-.61-22.79,3.82-40.03,19.11-43.43,36.62-.05.19-.15.38-.19.6l-34.22,148.35c-5.6-10.14-12.77-19.42-21.37-26.96-27.54-25.77-32.03-62.29-3.93-89.93.78-.81-.29-1.96-1.17-1.35-27.41,20.61-33.99,53.71-18.25,84.2,4.19,9.25,11.47,17.51,17.45,25.32,6.74,9.72,11.21,21.09,13.68,32.61,1.39,5.35,6.87,6.82,11.31,7.11.54.31,1.13.57,1.77.72,3.57.82,7.14-1.41,7.96-4.98l34.19-148.25c10.26,12.33,29.32,18.93,49.54,15.53,13.1-2.19,24.83-8.2,33.02-16.92,8.67-9.21,12.41-20.33,10.58-31.31h-.01Z"/>
</svg>